<svg width="96" height="96" viewBox="0 0 96 96" fill="none" xmlns="http://www.w3.org/2000/svg">
<path d="M0 48C0 21.4903 21.4903 0 48 0C74.5097 0 96 21.4903 96 48C96 74.5097 74.5097 96 48 96C21.4903 96 0 74.5097 0 48Z" fill="#F4F5F7"/>
<path d="M59 42V38C59 37.7348 58.8946 37.4804 58.7071 37.2929C58.5196 37.1054 58.2652 37 58 37H38C37.7348 37 37.4804 37.1054 37.2929 37.2929C37.1054 37.4804 37 37.7348 37 38V42H59Z" fill="#2EC5CE"/>
<path d="M37 44V58C37 58.2652 37.1054 58.5196 37.2929 58.7071C37.4804 58.8946 37.7348 59 38 59H43V44H37Z" fill="#D6B1FF"/>
<path d="M45 59H58C58.2652 59 58.5196 58.8946 58.7071 58.7071C58.8946 58.5196 59 58.2652 59 58V44H45V59Z" fill="#8C30F5"/>
</svg>
